# xmcd
#
# Track frame offsets:
#  150
#  11483
#  25054
#  35273
#  47917
#  62810
#  74484
#  85177
#  97410
#  106361
#
# Disc length: 1567 seconds
#
# Revision: 0
# Processed by: cddbd v1.5.1PL0 Copyright (c) Steve Scherf et al.
# Submitted via: Collectorz.com Music Collector 6.9
#
DISCID=84061d0a
DTITLE=The Nashville Country Singers - Country And Western Harmonica
DYEAR=1900
DGENRE=Country
TTITLE0=I'm So Lonesome I Counld Cry
TTITLE1=Today I Started Loving You Again
TTITLE2=Help Me Make It Through The Night
TTITLE3=There Goes My Everything
TTITLE4=The Orange Blossom Special
TTITLE5=Take Me Home Country Roads
TTITLE6=Send Me The Pillow You Dream On
TTITLE7=Born To Lose
TTITLE8=Wildwood Flower
TTITLE9=Danny Boy
EXTD=
EXTT0=
EXTT1=
EXTT2=
EXTT3=
EXTT4=
EXTT5=
EXTT6=
EXTT7=
EXTT8=
EXTT9=
PLAYORDER=
